<?xml version="1.0" encoding="utf-8"?>
<!-- Generator: Adobe Illustrator 25.0.1, SVG Export Plug-In . SVG Version: 6.00 Build 0)  -->
<svg version="1.1" id="Layer_1" xmlns="http://www.w3.org/2000/svg" xmlns:xlink="http://www.w3.org/1999/xlink" x="0px" y="0px"
	 viewBox="0 0 228.7 39.1" style="enable-background:new 0 0 228.7 39.1;" xml:space="preserve">
<g>
	<path d="M61.4,12.2c0-0.2,0.2-0.4,0.4-0.4h0.9c0.2,0,0.4,0.2,0.4,0.4v14.6c0,0.2-0.2,0.4-0.4,0.4h-0.9c-0.2,0-0.4-0.2-0.4-0.4V12.2
		z"/>
	<path d="M66.6,12c0-0.2,0.2-0.4,0.4-0.4h0.6l10,12.4c0,0,0,0,0,0V12.2c0-0.2,0.2-0.4,0.4-0.4h0.8c0.2,0,0.4,0.2,0.4,0.4v14.9
		c0,0.2-0.2,0.4-0.4,0.4h-0.4L68.2,14.8h0v12c0,0.2-0.2,0.4-0.4,0.4H67c-0.2,0-0.4-0.2-0.4-0.4V12z"/>
	<path d="M84.7,13.3h-3.8c-0.2,0-0.4-0.2-0.4-0.4v-0.6c0-0.2,0.2-0.4,0.4-0.4h9.4c0.2,0,0.4,0.2,0.4,0.4v0.6c0,0.2-0.2,0.4-0.4,0.4
		h-3.8v13.6c0,0.2-0.2,0.4-0.4,0.4h-0.8c-0.2,0-0.4-0.2-0.4-0.4V13.3z"/>
	<path d="M92,12.2c0-0.2,0.2-0.4,0.4-0.4h8.7c0.2,0,0.4,0.2,0.4,0.4v0.6c0,0.2-0.2,0.4-0.4,0.4h-7.4v5.4h6.3c0.2,0,0.4,0.2,0.4,0.4
		v0.6c0,0.2-0.2,0.4-0.4,0.4h-6.3v5.6h7.4c0.2,0,0.4,0.2,0.4,0.4v0.6c0,0.2-0.2,0.4-0.4,0.4h-8.7c-0.2,0-0.4-0.2-0.4-0.4V12.2z"/>
	<path d="M104,12.2c0-0.2,0.2-0.4,0.4-0.4h5.7c2.6,0,4.8,2.1,4.8,4.7c0,2-1.3,3.7-3.3,4.5l3,5.6c0.2,0.3,0,0.6-0.4,0.6h-1.1
		c-0.2,0-0.3-0.1-0.4-0.2l-2.9-5.9h-4.2v5.6c0,0.2-0.2,0.4-0.4,0.4h-0.9c-0.2,0-0.4-0.2-0.4-0.4V12.2z M110,19.8
		c1.7,0,3.2-1.4,3.2-3.2c0-1.7-1.5-3.1-3.2-3.1h-4.3v6.3H110z"/>
	<path d="M117.5,12.2c0-0.2,0.2-0.4,0.4-0.4h0.9c0.2,0,0.4,0.2,0.4,0.4v14.6c0,0.2-0.2,0.4-0.4,0.4h-0.9c-0.2,0-0.4-0.2-0.4-0.4
		V12.2z"/>
	<path d="M129.4,11.6c4.4,0,7.9,3.6,7.9,8s-3.5,7.9-7.9,7.9s-7.9-3.5-7.9-7.9S125,11.6,129.4,11.6z M129.4,25.9
		c3.5,0,6.4-2.9,6.4-6.4s-2.9-6.4-6.4-6.4s-6.4,2.9-6.4,6.4S125.9,25.9,129.4,25.9z"/>
	<path d="M139.6,12.2c0-0.2,0.2-0.4,0.4-0.4h5.7c2.6,0,4.8,2.1,4.8,4.7c0,2-1.3,3.7-3.3,4.5l3,5.6c0.2,0.3,0,0.6-0.4,0.6h-1.1
		c-0.2,0-0.3-0.1-0.4-0.2l-2.9-5.9h-4.2v5.6c0,0.2-0.2,0.4-0.4,0.4H140c-0.2,0-0.4-0.2-0.4-0.4V12.2z M145.6,19.8
		c1.7,0,3.2-1.4,3.2-3.2c0-1.7-1.5-3.1-3.2-3.1h-4.3v6.3H145.6z"/>
	<path d="M156.9,12.2c0-0.2,0.2-0.4,0.4-0.4h4.9c4.3,0,7.8,3.5,7.8,7.7c0,4.3-3.5,7.8-7.8,7.8h-4.9c-0.2,0-0.4-0.2-0.4-0.4V12.2z
		 M161.9,25.7c3.6,0,6.2-2.6,6.2-6.2c0-3.6-2.6-6.2-6.2-6.2h-3.3v12.4H161.9z"/>
	<path d="M172.3,12.2c0-0.2,0.2-0.4,0.4-0.4h8.7c0.2,0,0.4,0.2,0.4,0.4v0.6c0,0.2-0.2,0.4-0.4,0.4H174v5.4h6.3
		c0.2,0,0.4,0.2,0.4,0.4v0.6c0,0.2-0.2,0.4-0.4,0.4H174v5.6h7.4c0.2,0,0.4,0.2,0.4,0.4v0.6c0,0.2-0.2,0.4-0.4,0.4h-8.7
		c-0.2,0-0.4-0.2-0.4-0.4V12.2z"/>
	<path d="M183.3,24.9c0.1-0.1,0.2-0.3,0.3-0.4c0.2-0.3,0.5-0.5,0.8-0.2c0.2,0.1,1.8,1.7,3.7,1.7c1.8,0,3-1.1,3-2.4
		c0-1.5-1.3-2.4-3.9-3.5c-2.4-1.1-3.9-2.1-3.9-4.6c0-1.5,1.2-3.9,4.7-3.9c2.2,0,3.8,1.1,3.8,1.1c0.1,0.1,0.4,0.3,0.1,0.8
		c-0.1,0.1-0.2,0.3-0.3,0.4c-0.2,0.3-0.4,0.4-0.8,0.2c-0.2-0.1-1.5-1-2.9-1c-2.3,0-3,1.5-3,2.4c0,1.5,1.1,2.3,3,3.1
		c3,1.2,4.9,2.3,4.9,4.9c0,2.3-2.2,4-4.8,4c-2.6,0-4.4-1.5-4.7-1.8C183.2,25.5,183,25.4,183.3,24.9z"/>
	<path d="M194.9,12.2c0-0.2,0.2-0.4,0.4-0.4h0.9c0.2,0,0.4,0.2,0.4,0.4v14.6c0,0.2-0.2,0.4-0.4,0.4h-0.9c-0.2,0-0.4-0.2-0.4-0.4
		V12.2z"/>
	<path d="M206.9,11.6c2.2,0,3.8,0.8,5.3,2.1c0.2,0.2,0.2,0.4,0,0.6c-0.2,0.2-0.4,0.4-0.6,0.6c-0.2,0.2-0.3,0.2-0.6,0
		c-1.1-1-2.7-1.7-4.2-1.7c-3.5,0-6.1,2.9-6.1,6.3c0,3.4,2.6,6.4,6.1,6.4c2.4,0,4-0.9,4-0.9v-3.1h-2.5c-0.2,0-0.4-0.2-0.4-0.4v-0.8
		c0-0.2,0.2-0.4,0.4-0.4h3.8c0.2,0,0.4,0.2,0.4,0.4v5.1c0,0.1-0.1,0.3-0.2,0.4c0,0-2.3,1.5-5.5,1.5c-4.4,0-8-3.5-8-7.9
		S202.5,11.6,206.9,11.6z"/>
	<path d="M215.1,12c0-0.2,0.2-0.4,0.4-0.4h0.6L226,24c0,0,0,0,0,0V12.2c0-0.2,0.2-0.4,0.4-0.4h0.8c0.2,0,0.4,0.2,0.4,0.4v14.9
		c0,0.2-0.2,0.4-0.4,0.4h-0.4l-10.1-12.7h0v12c0,0.2-0.2,0.4-0.4,0.4h-0.8c-0.2,0-0.4-0.2-0.4-0.4V12z"/>
</g>
<g>
	<path d="M4.8,10.1c0-3.7,2.7-6.4,6.4-6.4c3.7,0,6.4,2.7,6.4,6.4V29c0,3.7-2.7,6.4-6.4,6.4c-3.7,0-6.4-2.7-6.4-6.4V10.1z"/>
	<path d="M27.1,35.4c-3.9,0-6.8-2.9-6.8-6.8V10.5c0-3.9,2.9-6.8,6.8-6.8h8.2c9.2,0,15.9,6.7,15.9,15.9s-6.7,15.9-15.9,15.9H27.1z"/>
</g>
</svg>
