<?xml version="1.0" encoding="utf-8"?>
<!-- Generator: Adobe Illustrator 25.0.1, SVG Export Plug-In . SVG Version: 6.00 Build 0)  -->
<svg version="1.1" xmlns="http://www.w3.org/2000/svg" xmlns:xlink="http://www.w3.org/1999/xlink" x="0px" y="0px"
	  style="enable-background:new 0 0 228.7 39.1;" xml:space="preserve">
	<symbol id="logo" viewBox="0 0 228.7 39.1">
	 	<g>
			<path d="M61.4,12.2c0-0.2,0.2-0.4,0.4-0.4h0.9c0.2,0,0.4,0.2,0.4,0.4v14.6c0,0.2-0.2,0.4-0.4,0.4h-0.9c-0.2,0-0.4-0.2-0.4-0.4V12.2
				z"/>
			<path d="M66.6,12c0-0.2,0.2-0.4,0.4-0.4h0.6l10,12.4c0,0,0,0,0,0V12.2c0-0.2,0.2-0.4,0.4-0.4h0.8c0.2,0,0.4,0.2,0.4,0.4v14.9
				c0,0.2-0.2,0.4-0.4,0.4h-0.4L68.2,14.8h0v12c0,0.2-0.2,0.4-0.4,0.4H67c-0.2,0-0.4-0.2-0.4-0.4V12z"/>
			<path d="M84.7,13.3h-3.8c-0.2,0-0.4-0.2-0.4-0.4v-0.6c0-0.2,0.2-0.4,0.4-0.4h9.4c0.2,0,0.4,0.2,0.4,0.4v0.6c0,0.2-0.2,0.4-0.4,0.4
				h-3.8v13.6c0,0.2-0.2,0.4-0.4,0.4h-0.8c-0.2,0-0.4-0.2-0.4-0.4V13.3z"/>
			<path d="M92,12.2c0-0.2,0.2-0.4,0.4-0.4h8.7c0.2,0,0.4,0.2,0.4,0.4v0.6c0,0.2-0.2,0.4-0.4,0.4h-7.4v5.4h6.3c0.2,0,0.4,0.2,0.4,0.4
				v0.6c0,0.2-0.2,0.4-0.4,0.4h-6.3v5.6h7.4c0.2,0,0.4,0.2,0.4,0.4v0.6c0,0.2-0.2,0.4-0.4,0.4h-8.7c-0.2,0-0.4-0.2-0.4-0.4V12.2z"/>
			<path d="M104,12.2c0-0.2,0.2-0.4,0.4-0.4h5.7c2.6,0,4.8,2.1,4.8,4.7c0,2-1.3,3.7-3.3,4.5l3,5.6c0.2,0.3,0,0.6-0.4,0.6h-1.1
				c-0.2,0-0.3-0.1-0.4-0.2l-2.9-5.9h-4.2v5.6c0,0.2-0.2,0.4-0.4,0.4h-0.9c-0.2,0-0.4-0.2-0.4-0.4V12.2z M110,19.8
				c1.7,0,3.2-1.4,3.2-3.2c0-1.7-1.5-3.1-3.2-3.1h-4.3v6.3H110z"/>
			<path d="M117.5,12.2c0-0.2,0.2-0.4,0.4-0.4h0.9c0.2,0,0.4,0.2,0.4,0.4v14.6c0,0.2-0.2,0.4-0.4,0.4h-0.9c-0.2,0-0.4-0.2-0.4-0.4
				V12.2z"/>
			<path d="M129.4,11.6c4.4,0,7.9,3.6,7.9,8s-3.5,7.9-7.9,7.9s-7.9-3.5-7.9-7.9S125,11.6,129.4,11.6z M129.4,25.9
				c3.5,0,6.4-2.9,6.4-6.4s-2.9-6.4-6.4-6.4s-6.4,2.9-6.4,6.4S125.9,25.9,129.4,25.9z"/>
			<path d="M139.6,12.2c0-0.2,0.2-0.4,0.4-0.4h5.7c2.6,0,4.8,2.1,4.8,4.7c0,2-1.3,3.7-3.3,4.5l3,5.6c0.2,0.3,0,0.6-0.4,0.6h-1.1
				c-0.2,0-0.3-0.1-0.4-0.2l-2.9-5.9h-4.2v5.6c0,0.2-0.2,0.4-0.4,0.4H140c-0.2,0-0.4-0.2-0.4-0.4V12.2z M145.6,19.8
				c1.7,0,3.2-1.4,3.2-3.2c0-1.7-1.5-3.1-3.2-3.1h-4.3v6.3H145.6z"/>
			<path d="M156.9,12.2c0-0.2,0.2-0.4,0.4-0.4h4.9c4.3,0,7.8,3.5,7.8,7.7c0,4.3-3.5,7.8-7.8,7.8h-4.9c-0.2,0-0.4-0.2-0.4-0.4V12.2z
				 M161.9,25.7c3.6,0,6.2-2.6,6.2-6.2c0-3.6-2.6-6.2-6.2-6.2h-3.3v12.4H161.9z"/>
			<path d="M172.3,12.2c0-0.2,0.2-0.4,0.4-0.4h8.7c0.2,0,0.4,0.2,0.4,0.4v0.6c0,0.2-0.2,0.4-0.4,0.4H174v5.4h6.3
				c0.2,0,0.4,0.2,0.4,0.4v0.6c0,0.2-0.2,0.4-0.4,0.4H174v5.6h7.4c0.2,0,0.4,0.2,0.4,0.4v0.6c0,0.2-0.2,0.4-0.4,0.4h-8.7
				c-0.2,0-0.4-0.2-0.4-0.4V12.2z"/>
			<path d="M183.3,24.9c0.1-0.1,0.2-0.3,0.3-0.4c0.2-0.3,0.5-0.5,0.8-0.2c0.2,0.1,1.8,1.7,3.7,1.7c1.8,0,3-1.1,3-2.4
				c0-1.5-1.3-2.4-3.9-3.5c-2.4-1.1-3.9-2.1-3.9-4.6c0-1.5,1.2-3.9,4.7-3.9c2.2,0,3.8,1.1,3.8,1.1c0.1,0.1,0.4,0.3,0.1,0.8
				c-0.1,0.1-0.2,0.3-0.3,0.4c-0.2,0.3-0.4,0.4-0.8,0.2c-0.2-0.1-1.5-1-2.9-1c-2.3,0-3,1.5-3,2.4c0,1.5,1.1,2.3,3,3.1
				c3,1.2,4.9,2.3,4.9,4.9c0,2.3-2.2,4-4.8,4c-2.6,0-4.4-1.5-4.7-1.8C183.2,25.5,183,25.4,183.3,24.9z"/>
			<path d="M194.9,12.2c0-0.2,0.2-0.4,0.4-0.4h0.9c0.2,0,0.4,0.2,0.4,0.4v14.6c0,0.2-0.2,0.4-0.4,0.4h-0.9c-0.2,0-0.4-0.2-0.4-0.4
				V12.2z"/>
			<path d="M206.9,11.6c2.2,0,3.8,0.8,5.3,2.1c0.2,0.2,0.2,0.4,0,0.6c-0.2,0.2-0.4,0.4-0.6,0.6c-0.2,0.2-0.3,0.2-0.6,0
				c-1.1-1-2.7-1.7-4.2-1.7c-3.5,0-6.1,2.9-6.1,6.3c0,3.4,2.6,6.4,6.1,6.4c2.4,0,4-0.9,4-0.9v-3.1h-2.5c-0.2,0-0.4-0.2-0.4-0.4v-0.8
				c0-0.2,0.2-0.4,0.4-0.4h3.8c0.2,0,0.4,0.2,0.4,0.4v5.1c0,0.1-0.1,0.3-0.2,0.4c0,0-2.3,1.5-5.5,1.5c-4.4,0-8-3.5-8-7.9
				S202.5,11.6,206.9,11.6z"/>
			<path d="M215.1,12c0-0.2,0.2-0.4,0.4-0.4h0.6L226,24c0,0,0,0,0,0V12.2c0-0.2,0.2-0.4,0.4-0.4h0.8c0.2,0,0.4,0.2,0.4,0.4v14.9
				c0,0.2-0.2,0.4-0.4,0.4h-0.4l-10.1-12.7h0v12c0,0.2-0.2,0.4-0.4,0.4h-0.8c-0.2,0-0.4-0.2-0.4-0.4V12z"/>
		</g>
		<g>
			<path d="M4.8,10.1c0-3.7,2.7-6.4,6.4-6.4c3.7,0,6.4,2.7,6.4,6.4V29c0,3.7-2.7,6.4-6.4,6.4c-3.7,0-6.4-2.7-6.4-6.4V10.1z"/>
			<path d="M27.1,35.4c-3.9,0-6.8-2.9-6.8-6.8V10.5c0-3.9,2.9-6.8,6.8-6.8h8.2c9.2,0,15.9,6.7,15.9,15.9s-6.7,15.9-15.9,15.9H27.1z"/>
		</g>
	</symbol>

	<symbol version="1.1" id="team" xmlns="http://www.w3.org/2000/svg" xmlns:xlink="http://www.w3.org/1999/xlink" x="0px" y="0px" viewBox="0 0 24 24" xml:space="preserve">
	    <g>
	        <path d="M14.7540247,10 C15.720523,10 16.5040247,10.7835017 16.5040247,11.75 L16.5040247,16.4989513 C16.5040247,18.9848119 14.4888366,21 12.002976,21 C9.51711551,21 7.50192738,18.9848119 7.50192738,16.4989513 L7.50192738,11.75 C7.50192738,10.7835017 8.28542907,10 9.25192738,10 L14.7540247,10 Z M14.7540247,11.5 L9.25192738,11.5 C9.1138562,11.5 9.00192738,11.6119288 9.00192738,11.75 L9.00192738,16.4989513 C9.00192738,18.1563848 10.3455426,19.5 12.002976,19.5 C13.6604094,19.5 15.0040247,18.1563848 15.0040247,16.4989513 L15.0040247,11.75 C15.0040247,11.6119288 14.8920959,11.5 14.7540247,11.5 Z M3.75,10 L7.13128385,9.9990615 C6.78790935,10.4144665 6.56424195,10.9324568 6.5131207,11.5001936 L3.75,11.5 C3.61192881,11.5 3.5,11.6119288 3.5,11.75 L3.5,14.99876 C3.5,16.3801567 4.61984327,17.5 6.00123996,17.5 C6.20123055,17.5 6.39573909,17.4765286 6.58216119,17.4321901 C6.66686857,17.9361103 6.82155533,18.416731 7.03486751,18.8640179 C6.70577369,18.9530495 6.35898976,19 6.00123996,19 C3.79141615,19 2,17.2085839 2,14.99876 L2,11.75 C2,10.7835017 2.78350169,10 3.75,10 Z M16.8746682,9.9990615 L20.25,10 C21.2164983,10 22,10.7835017 22,11.75 L22,15 C22,17.209139 20.209139,19 18,19 C17.6435705,19 17.2980295,18.953381 16.9691418,18.8659079 C17.1840249,18.4177435 17.3388146,17.9371218 17.4250335,17.4330962 C17.6091623,17.4769565 17.8018901,17.5 18,17.5 C19.3807119,17.5 20.5,16.3807119 20.5,15 L20.5,11.75 C20.5,11.6119288 20.3880712,11.5 20.25,11.5 L17.4928314,11.5001936 C17.4417101,10.9324568 17.2180427,10.4144665 16.8746682,9.9990615 Z M12,3 C13.6568542,3 15,4.34314575 15,6 C15,7.65685425 13.6568542,9 12,9 C10.3431458,9 9,7.65685425 9,6 C9,4.34314575 10.3431458,3 12,3 Z M18.5,4 C19.8807119,4 21,5.11928813 21,6.5 C21,7.88071187 19.8807119,9 18.5,9 C17.1192881,9 16,7.88071187 16,6.5 C16,5.11928813 17.1192881,4 18.5,4 Z M5.5,4 C6.88071187,4 8,5.11928813 8,6.5 C8,7.88071187 6.88071187,9 5.5,9 C4.11928813,9 3,7.88071187 3,6.5 C3,5.11928813 4.11928813,4 5.5,4 Z M12,4.5 C11.1715729,4.5 10.5,5.17157288 10.5,6 C10.5,6.82842712 11.1715729,7.5 12,7.5 C12.8284271,7.5 13.5,6.82842712 13.5,6 C13.5,5.17157288 12.8284271,4.5 12,4.5 Z M18.5,5.5 C17.9477153,5.5 17.5,5.94771525 17.5,6.5 C17.5,7.05228475 17.9477153,7.5 18.5,7.5 C19.0522847,7.5 19.5,7.05228475 19.5,6.5 C19.5,5.94771525 19.0522847,5.5 18.5,5.5 Z M5.5,5.5 C4.94771525,5.5 4.5,5.94771525 4.5,6.5 C4.5,7.05228475 4.94771525,7.5 5.5,7.5 C6.05228475,7.5 6.5,7.05228475 6.5,6.5 C6.5,5.94771525 6.05228475,5.5 5.5,5.5 Z"></path>
	    </g>
	</symbol>

	<symbol id="city" viewBox="0 0 24 24" xmlns="http://www.w3.org/2000/svg">
		<path d="M12 11C12 11.5523 11.5523 12 11 12C10.4477 12 10 11.5523 10 11C10 10.4477 10.4477 10 11 10C11.5523 10 12 10.4477 12 11Z"/>
		<path d="M11 15C11.5523 15 12 14.5523 12 14C12 13.4477 11.5523 13 11 13C10.4477 13 10 13.4477 10 14C10 14.5523 10.4477 15 11 15Z"/>
		<path d="M9 11C9 11.5523 8.55228 12 8 12C7.44772 12 7 11.5523 7 11C7 10.4477 7.44772 10 8 10C8.55228 10 9 10.4477 9 11Z"/>
		<path d="M8 15C8.55228 15 9 14.5523 9 14C9 13.4477 8.55228 13 8 13C7.44772 13 7 13.4477 7 14C7 14.5523 7.44772 15 8 15Z"/>
		<path d="M18 15C18 15.5523 17.5523 16 17 16C16.4477 16 16 15.5523 16 15C16 14.4477 16.4477 14 17 14C17.5523 14 18 14.4477 18 15Z"/>
		<path d="M17 19C17.5523 19 18 18.5523 18 18C18 17.4477 17.5523 17 17 17C16.4477 17 16 17.4477 16 18C16 18.5523 16.4477 19 17 19Z"/>
		<path d="M8.25 2.00171C7.83579 2.00171 7.5 2.3375 7.5 2.75171V5H6.25C5.83579 5 5.5 5.33579 5.5 5.75V7.79985C4.60958 8.25503 4 9.18133 4 10.25V20.75C4 21.1642 4.33579 21.5 4.75 21.5H19.75C20.1642 21.5 20.5 21.1642 20.5 20.75V15.75C20.5 12.6545 18.0539 10.1303 14.9892 10.0049C14.9042 9.04226 14.3232 8.2221 13.5034 7.80158V5.75C13.5034 5.33579 13.1676 5 12.7534 5H11.5V2.75171C11.5 2.3375 11.1642 2.00171 10.75 2.00171H8.25ZM12.0034 7.5H7V6.5H12.0034V7.5ZM13.5 20H12V17.25C12 16.8358 11.6642 16.5 11.25 16.5H7.75C7.33579 16.5 7 16.8358 7 17.25V20H5.5V10.25C5.5 9.55964 6.05964 9 6.75 9H12.25C12.9404 9 13.5 9.55964 13.5 10.25V20ZM8.5 20V18H10.5V20H8.5ZM15 20V11.5072C17.2308 11.6366 19 13.4867 19 15.75V20H15ZM10 5H9V3.50171H10V5Z"/>
	</symbol>


	<symbol id="home" viewBox="0 0 24 24">
    	<path d="M13.4505,2.53209 L20.2005,8.2242 C20.7074,8.65171 21,9.28109 21,9.94425 L21,19.747 C21,20.7135 20.2165,21.497 19.25,21.497 L15.75,21.497 C14.7835,21.497 14,20.7135 14,19.747 L14,14.247 C14,14.109 13.8881,13.997 13.75,13.997 L10.25,13.997 C10.1119,13.997 10,14.109 10,14.247 L10,19.747 C10,20.7135 9.2165,21.497 8.25,21.497 L4.75,21.497 C3.7835,21.497 3,20.7135 3,19.747 L3,9.94425 C3,9.28109 3.29255,8.65171 3.79952,8.2242 L10.5495,2.53209 C11.3874,1.8255 12.6126,1.8255 13.4505,2.53209 Z M11.5165,3.67879 L4.76651,9.3709 C4.59752,9.5134 4.5,9.7232 4.5,9.94425 L4.5,19.747 C4.5,19.8851 4.61193,19.997 4.75,19.997 L8.25,19.997 C8.38807,19.997 8.5,19.8851 8.5,19.747 L8.5,14.247 C8.5,13.2805 9.2835,12.497 10.25,12.497 L13.75,12.497 C14.7165,12.497 15.5,13.2805 15.5,14.247 L15.5,19.747 C15.5,19.8851 15.6119,19.997 15.75,19.997 L19.25,19.997 C19.3881,19.997 19.5,19.8851 19.5,19.747 L19.5,9.94425 C19.5,9.7232 19.4025,9.5134 19.2335,9.3709 L12.4835,3.67879 C12.2042,3.44326 11.7958,3.44326 11.5165,3.67879 Z"></path>
	</symbol>

	<symbol id="plus" viewBox="0 0 24 24">
	    <path d="M11.7498476,3 C12.1295434,3 12.4433959,3.28201302 12.4931327,3.64807848 L12.5,3.74984765 L12.5012052,11 L19.7542949,11 C20.1685084,11 20.5042949,11.3357864 20.5042949,11.75 C20.5042949,12.1296958 20.222141,12.443491 19.8560654,12.4931534 L19.7542949,12.5 L12.5012052,12.5 L12.50325,19.7491118 C12.5033342,20.1633254 12.1676159,20.4992642 11.7534024,20.4992642 C11.3737066,20.4992642 11.0598541,20.2172511 11.0101173,19.8511857 L11.0032501,19.7494165 L11.0012052,12.5 L3.75220519,12.5 C3.33799163,12.5 3.00220519,12.1642136 3.00220519,11.75 C3.00220519,11.3703042 3.28435907,11.056509 3.65043463,11.0068466 L3.75220519,11 L11.0012052,11 L11,3.75015235 C10.9999159,3.3359388 11.3356341,3 11.7498476,3 Z"></path>
	</symbol>

	<symbol id="twitter" viewBox="0 0 420 341.32">
		<path d="M423,170.35c.16,3.69.25,7.41.25,11.14,0,113.87-86.67,245.17-245.16,245.17A243.78,243.78,0,0,1,46,387.94a173.89,173.89,0,0,0,127.57-35.68,86.24,86.24,0,0,1-80.49-59.83A86.35,86.35,0,0,0,132,290.94a86.2,86.2,0,0,1-69.12-84.48v-1.09a85.82,85.82,0,0,0,39,10.78,86.25,86.25,0,0,1-26.67-115,244.62,244.62,0,0,0,177.6,90,86.22,86.22,0,0,1,146.83-78.59A172.92,172.92,0,0,0,454.4,91.64a86.48,86.48,0,0,1-37.89,47.67A172,172,0,0,0,466,125.74,174.88,174.88,0,0,1,423,170.35Z" transform="translate(-46 -85.34)"/>
	</symbol>

	<symbol id="facebook" viewBox="0 0 210.66 420">
		<path class="cls-1" d="M280.4,184.89h72l-5,62.83h-67V466H195.82V247.72H150.67V184.89h45.15V142.67c0-18.58.49-47.3,14.53-65.08,14.8-18.8,35.13-31.59,70-31.59,56.93,0,80.93,7.79,80.93,7.79L350,118.14s-18.8-5.24-36.36-5.24-33.28,6-33.28,22.93v49.06Z" transform="translate(-150.67 -46)"/>
	</symbol>

	<symbol id="linkedin" viewBox="0 0 420 401.44">
		<path d="M51.33,185.85h90V456.72h-90ZM96.93,55.28C66.13,55.28,46,75.5,46,102.05c0,26,19.54,46.81,49.76,46.81h.57c31.4,0,51-20.81,51-46.81C146.69,75.5,127.73,55.28,96.93,55.28ZM362.34,179.49c-47.78,0-69.19,26.28-81.13,44.71V185.85h-90c1.19,25.41,0,270.87,0,270.87h90V305.45c0-8.1.59-16.18,3-22,6.52-16.17,21.34-32.92,46.18-32.92C363,250.55,376,275.4,376,311.79V456.72h90V301.4C466,218.2,421.6,179.49,362.34,179.49Z" transform="translate(-46 -55.28)"/>
	</symbol>

</svg>


